<?xml version="1.0" encoding="UTF-8"?>
<svg width="500px" height="373px" viewBox="0 0 500 373" version="1.1" xmlns="http://www.w3.org/2000/svg" xmlns:xlink="http://www.w3.org/1999/xlink">
    <title>3923634</title>
    <defs>
        <polygon id="path-1" points="0.06 0.462 500 0.462 500 1.462 0.06 1.462"></polygon>
        <polygon id="path-3" points="0.111 0.942 387.889 0.942 387.889 134.94 0.111 134.94"></polygon>
    </defs>
    <g id="页面-1" stroke="none" stroke-width="1" fill="none" fill-rule="evenodd">
        <g id="3923634">
            <g id="编组" transform="translate(0.000000, 327.000000)">
                <mask id="mask-2" fill="white">
                    <use xlink:href="#path-1"></use>
                </mask>
                <g id="Clip-2"></g>
                <polygon id="Fill-1" fill="#E4E4DE" mask="url(#mask-2)" points="0.06 1.087 500 1.087 500 0.837 0.06 0.837"></polygon>
            </g>
            <polygon id="Fill-3" fill="#E4E4DE" points="416.779 344.183 449.901 344.183 449.901 343.933 416.779 343.933"></polygon>
            <polygon id="Fill-4" fill="#E4E4DE" points="322.527 346.896 331.22 346.896 331.22 346.646 322.527 346.646"></polygon>
            <polygon id="Fill-5" fill="#E4E4DE" points="396.586 334.896 415.778 334.896 415.778 334.646 396.586 334.646"></polygon>
            <polygon id="Fill-6" fill="#E4E4DE" points="52.459 336.577 95.652 336.577 95.652 336.327 52.459 336.327"></polygon>
            <polygon id="Fill-7" fill="#E4E4DE" points="104.556 336.577 110.889 336.577 110.889 336.327 104.556 336.327"></polygon>
            <polygon id="Fill-8" fill="#E4E4DE" points="131.471 340.799 225.147 340.799 225.147 340.549 131.471 340.549"></polygon>
            <path d="M43.915,0.641 C40.905,0.641 38.457,3.089 38.457,6.099 L38.457,277.53 C38.457,280.54 40.905,282.988 43.915,282.988 L237.014,282.988 C240.022,282.988 242.471,280.54 242.471,277.53 L242.471,6.099 C242.471,3.089 240.022,0.641 237.014,0.641 L43.915,0.641 M237.014,283.238 L43.915,283.238 C40.767,283.238 38.207,280.678 38.207,277.53 L38.207,6.099 C38.207,2.952 40.767,0.391 43.915,0.391 L237.014,0.391 C240.16,0.391 242.721,2.952 242.721,6.099 L242.721,277.53 C242.721,280.678 240.16,283.238 237.014,283.238" id="Fill-9" fill="#E4E4DE"></path>
            <path d="M260.212,0.641 C257.203,0.641 254.755,3.089 254.755,6.099 L254.755,277.53 C254.755,280.54 257.203,282.988 260.212,282.988 L453.311,282.988 C456.32,282.988 458.769,280.54 458.769,277.53 L458.769,6.099 C458.769,3.089 456.32,0.641 453.311,0.641 L260.212,0.641 M453.311,283.238 L260.212,283.238 C257.065,283.238 254.505,280.678 254.505,277.53 L254.505,6.099 C254.505,2.952 257.065,0.391 260.212,0.391 L453.311,0.391 C456.458,0.391 459.019,2.952 459.019,6.099 L459.019,277.53 C459.019,280.678 456.458,283.238 453.311,283.238" id="Fill-10" fill="#E4E4DE"></path>
            <polyline id="Fill-11" fill="#D4D5CF" points="375.306 85.749 380.933 83.438 425 83.438 435 103.234 435 108.438 375.306 85.749"></polyline>
            <polygon id="Fill-12" fill="#D4D5CF" points="409.493 265.108 413.89 265.108 413.89 100.799 409.493 100.799"></polygon>
            <polyline id="Fill-13" fill="#EAEAE5" points="435.409 108.758 386.742 108.758 375.571 86.075 424.238 86.075 435.409 108.758"></polyline>
            <path d="M390.324,92.215 C391.472,94.546 390.403,96.435 387.937,96.435 C385.471,96.435 382.542,94.546 381.394,92.215 C380.246,89.885 381.315,87.995 383.781,87.995 C386.247,87.995 389.176,89.885 390.324,92.215" id="Fill-14" fill="#FAF9F6"></path>
            <path d="M401.704,92.215 C402.852,94.546 401.783,96.435 399.317,96.435 C396.851,96.435 393.921,94.546 392.774,92.215 C391.626,89.885 392.695,87.995 395.161,87.995 C397.626,87.995 400.556,89.885 401.704,92.215" id="Fill-15" fill="#FAF9F6"></path>
            <path d="M413.083,92.215 C414.231,94.546 413.163,96.435 410.697,96.435 C408.231,96.435 405.301,94.546 404.154,92.215 C403.006,89.885 404.075,87.995 406.541,87.995 C409.006,87.995 411.936,89.885 413.083,92.215" id="Fill-16" fill="#FAF9F6"></path>
            <path d="M424.463,92.215 C425.611,94.546 424.542,96.435 422.077,96.435 C419.611,96.435 416.682,94.546 415.534,92.215 C414.386,89.885 415.455,87.995 417.92,87.995 C420.386,87.995 423.315,89.885 424.463,92.215" id="Fill-17" fill="#FAF9F6"></path>
            <path d="M395.447,102.618 C396.595,104.948 395.526,106.838 393.06,106.838 C390.594,106.838 387.665,104.948 386.517,102.618 C385.37,100.287 386.438,98.398 388.904,98.398 C391.37,98.398 394.299,100.287 395.447,102.618" id="Fill-18" fill="#FAF9F6"></path>
            <path d="M406.827,102.618 C407.975,104.948 406.906,106.838 404.44,106.838 C401.974,106.838 399.045,104.948 397.897,102.618 C396.75,100.287 397.818,98.398 400.284,98.398 C402.75,98.398 405.679,100.287 406.827,102.618" id="Fill-19" fill="#FAF9F6"></path>
            <path d="M418.207,102.618 C419.354,104.948 418.286,106.838 415.82,106.838 C413.354,106.838 410.425,104.948 409.277,102.618 C408.129,100.287 409.198,98.398 411.664,98.398 C414.129,98.398 417.059,100.287 418.207,102.618" id="Fill-20" fill="#FAF9F6"></path>
            <path d="M429.586,102.618 C430.734,104.948 429.666,106.838 427.2,106.838 C424.734,106.838 421.805,104.948 420.657,102.618 C419.509,100.287 420.578,98.398 423.043,98.398 C425.509,98.398 428.439,100.287 429.586,102.618" id="Fill-21" fill="#FAF9F6"></path>
            <polyline id="Fill-22" fill="#D4D5CF" points="106.306 85.749 111.933 83.438 156 83.438 166 103.234 166 108.438 106.306 85.749"></polyline>
            <polygon id="Fill-23" fill="#D4D5CF" points="140.493 265.108 144.89 265.108 144.89 100.799 140.493 100.799"></polygon>
            <polyline id="Fill-24" fill="#EAEAE5" points="166.409 108.758 117.742 108.758 106.571 86.075 155.238 86.075 166.409 108.758"></polyline>
            <path d="M121.324,92.215 C122.472,94.546 121.403,96.435 118.937,96.435 C116.471,96.435 113.542,94.546 112.394,92.215 C111.246,89.885 112.315,87.995 114.781,87.995 C117.247,87.995 120.176,89.885 121.324,92.215" id="Fill-25" fill="#FAF9F6"></path>
            <path d="M132.704,92.215 C133.852,94.546 132.783,96.435 130.317,96.435 C127.851,96.435 124.921,94.546 123.774,92.215 C122.626,89.885 123.695,87.995 126.161,87.995 C128.626,87.995 131.556,89.885 132.704,92.215" id="Fill-26" fill="#FAF9F6"></path>
            <path d="M144.083,92.215 C145.231,94.546 144.163,96.435 141.697,96.435 C139.231,96.435 136.301,94.546 135.154,92.215 C134.006,89.885 135.075,87.995 137.541,87.995 C140.006,87.995 142.936,89.885 144.083,92.215" id="Fill-27" fill="#FAF9F6"></path>
            <path d="M155.463,92.215 C156.611,94.546 155.542,96.435 153.077,96.435 C150.611,96.435 147.682,94.546 146.534,92.215 C145.386,89.885 146.455,87.995 148.92,87.995 C151.386,87.995 154.315,89.885 155.463,92.215" id="Fill-28" fill="#FAF9F6"></path>
            <path d="M126.447,102.618 C127.595,104.948 126.526,106.838 124.06,106.838 C121.594,106.838 118.665,104.948 117.517,102.618 C116.37,100.287 117.438,98.398 119.904,98.398 C122.37,98.398 125.299,100.287 126.447,102.618" id="Fill-29" fill="#FAF9F6"></path>
            <path d="M137.827,102.618 C138.975,104.948 137.906,106.838 135.44,106.838 C132.974,106.838 130.045,104.948 128.897,102.618 C127.75,100.287 128.818,98.398 131.284,98.398 C133.75,98.398 136.679,100.287 137.827,102.618" id="Fill-30" fill="#FAF9F6"></path>
            <path d="M149.207,102.618 C150.354,104.948 149.286,106.838 146.82,106.838 C144.354,106.838 141.425,104.948 140.277,102.618 C139.129,100.287 140.198,98.398 142.664,98.398 C145.129,98.398 148.059,100.287 149.207,102.618" id="Fill-31" fill="#FAF9F6"></path>
            <path d="M160.586,102.618 C161.734,104.948 160.666,106.838 158.2,106.838 C155.734,106.838 152.805,104.948 151.657,102.618 C150.509,100.287 151.578,98.398 154.043,98.398 C156.509,98.398 159.439,100.287 160.586,102.618" id="Fill-32" fill="#FAF9F6"></path>
            <polyline id="Fill-33" fill="#D4D5CF" points="429.686 166.442 226.019 166.442 226.019 189.442 200.168 189.442 200.168 213.442 175.087 213.442 175.087 236.442 149.019 236.442 149.019 312.442 429.686 312.442 429.686 166.442"></polyline>
            <polygon id="Fill-34" fill="#E4E4DE" points="226.019 189.442 400.686 189.442 400.686 168.669 226.019 168.669"></polygon>
            <polygon id="Fill-35" fill="#E4E4DE" points="200.168 213.442 374.985 213.442 374.985 191.996 200.168 191.996"></polygon>
            <polygon id="Fill-36" fill="#E4E4DE" points="175.087 236.442 349.822 236.442 349.822 215.324 175.087 215.324"></polygon>
            <g id="编组" transform="translate(56.000000, 238.000000)">
                <mask id="mask-4" fill="white">
                    <use xlink:href="#path-3"></use>
                </mask>
                <g id="Clip-38"></g>
                <polygon id="Fill-37" fill="#E4E4DE" mask="url(#mask-4)" points="93.019 21.715 267.686 21.715 267.686 0.942 93.019 0.942"></polygon>
                <path d="M387.889,123.677 C387.889,129.931 301.083,135 194,135 C86.918,135 0.111,129.931 0.111,123.677 C0.111,117.423 86.918,112.353 194,112.353 C301.083,112.353 387.889,117.423 387.889,123.677" id="Fill-39" fill="#F1F0EC" mask="url(#mask-4)"></path>
            </g>
            <polyline id="Fill-40" fill="#97B498" points="259.803 327.962 79.914 327.962 63.116 261.438 243.004 261.438 259.803 327.962"></polyline>
            <polyline id="Fill-41" fill="#3769A4" points="242.792 261.438 62.904 261.438 46.105 327.962 225.994 327.962 242.792 261.438"></polyline>
            <path d="M225.994,327.962 L88,327.962 L88,261.438 L242.792,261.438 L238.979,276.541 C238.736,276.551 238.485,276.556 238.226,276.556 C233.954,276.555 227.582,275.28 221.529,274.004 C215.476,272.728 209.742,271.452 206.745,271.452 C206.737,271.452 206.73,271.452 206.722,271.452 C204.089,271.458 202.218,272.072 200.97,273.251 L198.043,272.265 L198.033,272.284 L189.567,269.46 L186.805,275.337 L194.885,278.715 L198.947,280.408 C198.959,280.688 198.977,280.973 199,281.265 C199.427,286.665 212.975,297.549 232.584,301.865 L225.994,327.962 M83,327.962 L46.105,327.962 L62.904,261.438 L83,261.438 L83,327.962" id="Fill-42" fill="#C8E6C9"></path>
            <polyline id="Fill-43" fill="#97B498" points="449.923 327.962 270.034 327.962 253.235 261.438 433.124 261.438 449.923 327.962 270.034 225.883"></polyline>
            <polyline id="Fill-44" fill="#3769A4" points="432.912 261.438 253.023 261.438 236.225 327.962 416.113 327.962 432.912 261.438"></polyline>
            <path d="M416.113,327.962 L348.886,327.962 C348.881,325.953 348.573,323.619 347.737,320.993 C339.334,294.591 331.867,277.108 317.925,261.438 L432.912,261.438 L416.113,327.962 M327.56,327.962 L236.225,327.962 L242.431,303.383 C242.673,303.404 242.915,303.425 243.157,303.444 C243.619,303.481 244.077,303.499 244.533,303.499 C250.986,303.499 256.831,299.862 262,294.23 L262,327.438 L267,327.438 L267,287.909 C270.515,282.838 273.641,276.963 276.354,270.966 C288.299,278.617 300.506,285.186 306,289.348 C314.53,295.809 319.838,315.024 327.56,327.962" id="Fill-45" fill="#C8E6C9"></path>
            <polygon id="Fill-46" fill="#3769A4" points="262 327.438 267 327.438 267 21.438 262 21.438"></polygon>
            <path d="M267,327.438 L262,327.438 L262,294.23 C263.744,292.329 265.412,290.201 267,287.909 L267,327.438" id="Fill-47" fill="#729DC7"></path>
            <path d="M267,155.531 C265.634,155.146 264.328,154.721 263.104,154.283 C262.903,153.96 262.698,153.669 262.49,153.417 L262,153.647 L262,140.792 C263.163,142.839 264.84,144.566 267,145.621 L267,155.531 L267,155.531 Z M262,125.717 L262,77.445 L267,77.445 L267,119.631 C264.781,121.124 263.158,123.276 262,125.717 L262,125.717 Z M262,23.497 L267,23.497 L267,21.438 L262,21.438 L262,23.497 Z" id="Fill-48" fill="#5D99C6"></path>
            <polygon id="Fill-49" fill="#3769A4" points="83 362.438 88 362.438 88 21.438 83 21.438"></polygon>
            <polyline id="Fill-50" fill="#90CAF9" points="88 362.438 83 362.438 83 77.445 83 100.801 88 103.234 88 362.438"></polyline>
            <path d="M88,103.234 L83,100.801 L83,77.445 L88,77.445 L88,103.234 L88,103.234 Z M83,23.497 L88,23.497 L88,21.438 L83,21.438 L83,23.497 Z" id="Fill-51" fill="#5D99C6"></path>
            <polygon id="Fill-52" fill="#3769A4" points="80.878 77.444 269.693 77.444 269.693 23.497 80.878 23.497"></polygon>
            <polyline id="Fill-53" fill="#90CAF9" points="269.693 77.445 256.206 77.445 256.206 63.958 242.72 63.958 242.72 50.471 229.233 50.471 229.233 36.984 215.746 36.984 215.746 23.497 202.259 23.497 202.259 36.984 215.746 36.984 215.746 50.471 229.233 50.471 229.233 63.958 242.72 63.958 242.72 77.445 229.233 77.445 229.233 63.958 215.746 63.958 215.746 50.471 202.259 50.471 202.259 36.984 188.772 36.984 188.772 23.497 175.286 23.497 175.286 36.984 188.772 36.984 188.772 50.471 202.259 50.471 202.259 63.958 215.746 63.958 215.746 77.445 202.259 77.445 202.259 63.958 188.772 63.958 188.772 50.471 175.286 50.471 175.286 36.984 161.799 36.984 161.799 23.497 148.312 23.497 148.312 36.984 161.799 36.984 161.799 50.471 175.286 50.471 175.286 63.958 188.772 63.958 188.772 77.445 175.286 77.445 175.286 63.958 161.799 63.958 161.799 50.471 148.312 50.471 148.312 36.984 134.825 36.984 134.825 23.497 121.338 23.497 121.338 36.984 134.825 36.984 134.825 50.471 148.312 50.471 148.312 63.958 161.799 63.958 161.799 77.445 148.312 77.445 148.312 63.958 134.825 63.958 134.825 50.471 121.338 50.471 121.338 36.984 107.852 36.984 107.852 23.497 94.365 23.497 94.365 36.984 107.852 36.984 107.852 50.471 121.338 50.471 121.338 63.958 134.825 63.958 134.825 77.445 121.338 77.445 121.338 63.958 107.852 63.958 107.852 50.471 94.365 50.471 94.365 36.984 80.878 36.984 80.878 50.471 94.365 50.471 94.365 63.958 107.852 63.958 107.852 77.445 94.365 77.445 94.365 63.958 80.878 63.958 80.878 77.445 80.878 23.497 269.693 23.497 256.206 23.497 256.206 36.984 269.693 36.984 269.693 50.471 256.206 50.471 256.206 36.984 242.72 36.984 242.72 23.497 229.233 23.497 229.233 36.984 242.72 36.984 242.72 50.471 256.206 50.471 256.206 63.958 269.693 63.958 269.693 77.445"></polyline>
            <polygon id="Fill-54" fill="#1E292D" points="80.878 77.445 94.365 77.445 94.365 63.958 80.878 63.958"></polygon>
            <polygon id="Fill-55" fill="#1E292D" points="80.878 50.471 94.365 50.471 94.365 36.984 80.878 36.984"></polygon>
            <polygon id="Fill-56" fill="#1E292D" points="94.365 63.958 107.852 63.958 107.852 50.471 94.365 50.471"></polygon>
            <polygon id="Fill-57" fill="#1E292D" points="107.852 77.445 121.338 77.445 121.338 63.958 107.852 63.958"></polygon>
            <polygon id="Fill-58" fill="#1E292D" points="94.365 36.984 107.852 36.984 107.852 23.497 94.365 23.497"></polygon>
            <polygon id="Fill-59" fill="#1E292D" points="107.852 50.471 121.338 50.471 121.338 36.984 107.852 36.984"></polygon>
            <polygon id="Fill-60" fill="#1E292D" points="121.338 63.958 134.825 63.958 134.825 50.471 121.338 50.471"></polygon>
            <polygon id="Fill-61" fill="#1E292D" points="134.825 77.445 148.312 77.445 148.312 63.958 134.825 63.958"></polygon>
            <polygon id="Fill-62" fill="#1E292D" points="121.338 36.984 134.825 36.984 134.825 23.497 121.338 23.497"></polygon>
            <polygon id="Fill-63" fill="#1E292D" points="134.825 50.471 148.312 50.471 148.312 36.984 134.825 36.984"></polygon>
            <polygon id="Fill-64" fill="#1E292D" points="148.312 63.958 161.799 63.958 161.799 50.471 148.312 50.471"></polygon>
            <polygon id="Fill-65" fill="#1E292D" points="161.799 77.445 175.286 77.445 175.286 63.958 161.799 63.958"></polygon>
            <polygon id="Fill-66" fill="#1E292D" points="148.312 36.984 161.799 36.984 161.799 23.497 148.312 23.497"></polygon>
            <polygon id="Fill-67" fill="#1E292D" points="161.799 50.471 175.286 50.471 175.286 36.984 161.799 36.984"></polygon>
            <polygon id="Fill-68" fill="#1E292D" points="175.286 63.958 188.772 63.958 188.772 50.471 175.286 50.471"></polygon>
            <polygon id="Fill-69" fill="#1E292D" points="188.772 77.445 202.259 77.445 202.259 63.958 188.772 63.958"></polygon>
            <polygon id="Fill-70" fill="#1E292D" points="175.286 36.984 188.772 36.984 188.772 23.497 175.286 23.497"></polygon>
            <polygon id="Fill-71" fill="#1E292D" points="188.772 50.471 202.259 50.471 202.259 36.984 188.772 36.984"></polygon>
            <polygon id="Fill-72" fill="#1E292D" points="202.259 63.958 215.746 63.958 215.746 50.471 202.259 50.471"></polygon>
            <polygon id="Fill-73" fill="#1E292D" points="215.746 77.445 229.233 77.445 229.233 63.958 215.746 63.958"></polygon>
            <polygon id="Fill-74" fill="#1E292D" points="202.259 36.984 215.746 36.984 215.746 23.497 202.259 23.497"></polygon>
            <polygon id="Fill-75" fill="#1E292D" points="215.746 50.471 229.233 50.471 229.233 36.984 215.746 36.984"></polygon>
            <polygon id="Fill-76" fill="#1E292D" points="229.233 63.958 242.72 63.958 242.72 50.471 229.233 50.471"></polygon>
            <polygon id="Fill-77" fill="#1E292D" points="242.72 77.445 256.206 77.445 256.206 63.958 242.72 63.958"></polygon>
            <polygon id="Fill-78" fill="#1E292D" points="229.233 36.984 242.72 36.984 242.72 23.497 229.233 23.497"></polygon>
            <polygon id="Fill-79" fill="#1E292D" points="242.72 50.471 256.206 50.471 256.206 36.984 242.72 36.984"></polygon>
            <polygon id="Fill-80" fill="#1E292D" points="256.206 63.958 269.693 63.958 269.693 50.471 256.206 50.471"></polygon>
            <polygon id="Fill-81" fill="#1E292D" points="256.206 36.984 269.693 36.984 269.693 23.497 256.206 23.497"></polygon>
            <polygon id="Fill-82" fill="#333F40" points="80.878 77.445 94.365 77.445 94.365 63.958 80.878 63.958"></polygon>
            <polygon id="Fill-83" fill="#333F40" points="80.878 50.471 94.365 50.471 94.365 36.984 80.878 36.984"></polygon>
            <polygon id="Fill-84" fill="#333F40" points="94.365 63.958 107.852 63.958 107.852 50.471 94.365 50.471"></polygon>
            <polygon id="Fill-85" fill="#333F40" points="107.852 77.445 121.338 77.445 121.338 63.958 107.852 63.958"></polygon>
            <polygon id="Fill-86" fill="#333F40" points="94.365 36.984 107.852 36.984 107.852 23.497 94.365 23.497"></polygon>
            <polygon id="Fill-87" fill="#333F40" points="107.852 50.471 121.338 50.471 121.338 36.984 107.852 36.984"></polygon>
            <polygon id="Fill-88" fill="#333F40" points="121.338 63.958 134.825 63.958 134.825 50.471 121.338 50.471"></polygon>
            <polygon id="Fill-89" fill="#333F40" points="134.825 77.445 148.312 77.445 148.312 63.958 134.825 63.958"></polygon>
            <polygon id="Fill-90" fill="#333F40" points="121.338 36.984 134.825 36.984 134.825 23.497 121.338 23.497"></polygon>
            <polygon id="Fill-91" fill="#333F40" points="134.825 50.471 148.312 50.471 148.312 36.984 134.825 36.984"></polygon>
            <polygon id="Fill-92" fill="#333F40" points="148.312 63.958 161.799 63.958 161.799 50.471 148.312 50.471"></polygon>
            <polygon id="Fill-93" fill="#333F40" points="161.799 77.445 175.286 77.445 175.286 63.958 161.799 63.958"></polygon>
            <polygon id="Fill-94" fill="#333F40" points="148.312 36.984 161.799 36.984 161.799 23.497 148.312 23.497"></polygon>
            <polygon id="Fill-95" fill="#333F40" points="161.799 50.471 175.286 50.471 175.286 36.984 161.799 36.984"></polygon>
            <polygon id="Fill-96" fill="#333F40" points="175.286 63.958 188.772 63.958 188.772 50.471 175.286 50.471"></polygon>
            <polygon id="Fill-97" fill="#333F40" points="188.772 77.445 202.259 77.445 202.259 63.958 188.772 63.958"></polygon>
            <polygon id="Fill-98" fill="#333F40" points="175.286 36.984 188.772 36.984 188.772 23.497 175.286 23.497"></polygon>
            <polygon id="Fill-99" fill="#333F40" points="188.772 50.471 202.259 50.471 202.259 36.984 188.772 36.984"></polygon>
            <polygon id="Fill-100" fill="#333F40" points="202.259 63.958 215.746 63.958 215.746 50.471 202.259 50.471"></polygon>
            <polygon id="Fill-101" fill="#333F40" points="215.746 77.445 229.233 77.445 229.233 63.958 215.746 63.958"></polygon>
            <polygon id="Fill-102" fill="#333F40" points="202.259 36.984 215.746 36.984 215.746 23.497 202.259 23.497"></polygon>
            <polygon id="Fill-103" fill="#333F40" points="215.746 50.471 229.233 50.471 229.233 36.984 215.746 36.984"></polygon>
            <polygon id="Fill-104" fill="#333F40" points="229.233 63.958 242.72 63.958 242.72 50.471 229.233 50.471"></polygon>
            <polygon id="Fill-105" fill="#333F40" points="242.72 77.445 256.206 77.445 256.206 63.958 242.72 63.958"></polygon>
            <polygon id="Fill-106" fill="#333F40" points="229.233 36.984 242.72 36.984 242.72 23.497 229.233 23.497"></polygon>
            <polygon id="Fill-107" fill="#333F40" points="242.72 50.471 256.206 50.471 256.206 36.984 242.72 36.984"></polygon>
            <polygon id="Fill-108" fill="#333F40" points="256.206 63.958 269.693 63.958 269.693 50.471 256.206 50.471"></polygon>
            <polygon id="Fill-109" fill="#333F40" points="256.206 36.984 269.693 36.984 269.693 23.497 256.206 23.497"></polygon>
            <path d="M266.018,121.458 C266.018,121.458 263.084,114.313 254.5,115.105 C245.5,115.935 236.833,127.272 228.667,124.938 C220.5,122.605 221.5,117.468 221.5,117.468 C221.5,117.468 218.5,124.863 228.667,131.067 C238.833,137.272 252.642,121.605 264.154,126.272 L266.018,121.458" id="Fill-110" fill="#1E292D"></path>
            <path d="M266.245,121.382 C266.239,121.364 265.506,119.177 263.551,116.886 C261.597,114.597 258.403,112.203 253.519,111.824 C253.224,111.801 252.933,111.79 252.645,111.79 C248.353,111.793 244.879,114.253 241.697,116.666 C238.514,119.091 235.607,121.455 232.547,121.445 C232.019,121.445 231.485,121.376 230.938,121.227 C230.811,121.192 230.679,121.267 230.644,121.395 C230.608,121.523 230.684,121.655 230.812,121.69 C231.399,121.851 231.977,121.925 232.547,121.925 C235.864,121.915 238.812,119.452 241.987,117.049 C245.163,114.635 248.55,112.267 252.645,112.27 C252.92,112.27 253.199,112.281 253.481,112.303 C258.222,112.673 261.286,114.978 263.186,117.198 C264.134,118.308 264.787,119.396 265.202,120.205 C265.409,120.61 265.557,120.945 265.653,121.177 C265.7,121.293 265.735,121.384 265.758,121.445 L265.79,121.535 C265.832,121.66 265.968,121.728 266.094,121.686 C266.219,121.644 266.287,121.508 266.245,121.382" id="Fill-111" fill="#132529"></path>
            <path d="M288.121,135.092 C288.121,135.092 291.542,120.968 279.687,118.12 C267.833,115.272 262.5,122.219 260.5,129.912 C258.5,137.605 263.545,148.306 274.272,146.538 C285,144.772 287.69,138.439 288.121,135.092" id="Fill-112" fill="#1E292D"></path>
            <path d="M292.51,157.031 C302.253,152.497 315.053,142.579 314.811,138.964 C314.57,135.35 304.75,111.063 304.75,111.063 C304.75,111.063 303.46,110.715 302.494,109.991 C301.528,109.267 300.321,100.33 301.77,99.847 C303.219,99.364 308.049,98.64 309.257,98.64 C310.464,98.64 309.981,106.61 309.498,108.542 C309.498,108.542 325.082,130.259 324.052,140.653 C323.022,151.047 298.872,169.125 290.419,171.679 C281.966,174.232 292.51,157.031 292.51,157.031" id="Fill-113" fill="#E88274"></path>
            <polyline id="Fill-114" fill="#E88274" points="186.805 275.337 189.567 269.46 198.205 272.341 206.124 274.997 203.98 282.507 194.885 278.715 186.805 275.337"></polyline>
            <path d="M190.536,268.378 C191.177,268.697 186.927,276.419 186.927,276.419 C186.927,276.419 179.644,278.976 176.289,283.206 C172.934,287.437 171.329,283.437 173.828,278.12 C176.327,272.804 178.234,268.745 180.01,264.968 C181.785,261.189 183.894,265.063 190.536,268.378" id="Fill-115" fill="#1E292D"></path>
            <path d="M185.81,277.546 C185.703,278.935 185.787,280.366 186.135,280.555 C186.243,280.615 186.432,280.479 186.535,280.396 C186.753,280.216 186.866,279.993 186.878,279.717 C186.91,279.014 186.281,278.103 185.81,277.546 Z M185.271,277.615 C184.224,278.556 183.1,279.809 183.231,280.327 C183.243,280.373 183.278,280.511 183.628,280.578 C183.758,280.601 183.883,280.571 184.013,280.481 C184.612,280.062 185.051,278.601 185.271,277.615 Z M183.716,281.051 L183.54,281.033 C183.012,280.932 182.836,280.655 182.782,280.441 C182.501,279.335 184.98,277.234 185.48,276.824 L185.576,276.777 L185.577,276.777 L185.625,276.772 L185.761,276.814 L185.762,276.815 L185.763,276.815 L185.764,276.816 L185.765,276.817 L185.766,276.817 L185.766,276.818 L185.767,276.818 L185.768,276.819 L185.769,276.819 L185.785,276.834 L185.786,276.834 L185.786,276.835 L185.787,276.836 L185.788,276.836 L185.791,276.839 C185.856,276.904 187.4,278.446 187.342,279.737 C187.323,280.147 187.151,280.489 186.83,280.754 C186.488,281.036 186.18,281.105 185.915,280.963 C185.507,280.742 185.354,279.977 185.313,279.168 C185.062,279.871 184.72,280.553 184.279,280.861 C184.099,280.987 183.91,281.051 183.716,281.051 L183.716,281.051 Z" id="Fill-116" fill="#3769A4"></path>
            <path d="M200.956,273.264 L198.205,272.341 L198.033,272.284 L198.043,272.265 L200.97,273.251 C200.965,273.255 200.961,273.259 200.956,273.264" id="Fill-117" fill="#7895B9"></path>
            <path d="M198.946,280.402 L194.704,278.629 L198.033,272.284 L198.205,272.341 L200.956,273.264 C199.53,274.621 198.923,276.719 198.925,279.493 C198.925,279.789 198.933,280.092 198.946,280.402" id="Fill-118" fill="#B9695E"></path>
            <path d="M288.12,236.259 C284.5,251.938 268.314,305.45 243.157,303.444 C218,301.438 199.5,287.59 199,281.265 C198.5,274.938 200.444,271.466 206.722,271.452 C209.713,271.446 215.461,272.725 221.529,274.004 C228.199,275.41 235.256,276.816 239.464,276.515 C247.5,275.938 254.994,241.848 254.994,241.848 L288.12,236.259" id="Fill-119" fill="#3769A4"></path>
            <path d="M244.533,303.499 C244.077,303.499 243.619,303.481 243.157,303.444 C239.478,303.151 235.942,302.605 232.584,301.865 C212.975,297.549 199.427,286.665 199,281.265 C198.977,280.973 198.959,280.688 198.947,280.408 C198.933,280.096 198.924994,279.791 198.924994,279.493 C198.921,274.293 201.057,271.464 206.722,271.452 C206.73,271.452 206.737,271.452 206.745,271.452 C209.742,271.452 215.476,272.728 221.529,274.004 C227.582,275.28 233.954,276.555 238.226,276.556 C238.661,276.556 239.075,276.542 239.464,276.515 C244.606,276.146 249.526,262.056 252.403,251.955 C258.105,258.532 267.152,265.071 276.354,270.966 C273.641,276.963 270.515,282.838 267,287.909 C265.412,290.201 263.744,292.329 262,294.23 C256.831,299.862 250.986,303.499 244.533,303.499" id="Fill-120" fill="#97B498"></path>
            <polyline id="Fill-121" fill="#E88274" points="352.365 348.481 346.404 351.058 341.837 343.181 337.66 335.948 344.238 331.738 348.544 340.601 352.365 348.481"></polyline>
            <path d="M344.962,351.227 C344.693,350.563 352.99,347.589 352.99,347.589 C352.99,347.589 360.141,350.494 365.457,349.544 C370.772,348.594 369.328,352.654 363.935,354.985 C358.542,357.316 354.426,359.095 350.595,360.752 C346.763,362.407 347.747,358.108 344.962,351.227" id="Fill-122" fill="#1E292D"></path>
            <path d="M355.876,344.438 C355.611,344.438 355.393,344.745 355.209,344.934 C354.69,345.471 354.588,346.712 354.575,347.375 C355.574,346.404 356.457,345.117 356.321,344.745 C356.279,344.629 356.049,344.438 355.917,344.438 L355.876,344.438 Z M357.754,346.468 C357.012,346.468 355.801,347.224 355.023,347.788 C356.43,347.776 358.102,347.582 358.347,347.105 C358.369,347.063 358.434,346.937 358.216,346.655 C358.135,346.551 358.02,346.491 357.863,346.474 L357.754,346.468 Z M354.949,348.352 C354.679,348.352 354.465,348.438 354.343,348.438 L354.206,348.438 L354,348.324 L354,348.251 L353.979,348.185 L354,348.132 L354,348.122 L354.046,348.026 C354.039,347.935 353.94,345.756 354.838,344.827 C355.124,344.532 355.49,344.385 355.914,344.405 C356.357,344.42 356.644,344.571 356.747,344.854 C356.906,345.289 356.52,345.963 356.015,346.597 C356.668,346.235 357.376,345.947 357.913,346.013 C358.197,346.045 358.423,346.166 358.582,346.372 C358.911,346.799 358.86,347.171 358.759,347.366 C358.335,348.19 356.115,348.352 354.949,348.352 L354.949,348.352 Z" id="Fill-123" fill="#3769A4"></path>
            <polyline id="Fill-124" fill="#BEBFBB" points="341.908 343.345 339.43 339.042 339.444 339.037 341.837 343.181 341.928 343.337 341.908 343.345"></polyline>
            <polyline id="Fill-125" fill="#B9695E" points="341.928 343.337 341.837 343.181 339.444 339.037 346.542 336.493 348.624 340.785 341.928 343.337"></polyline>
            <path d="M257.708,205.16 C257.708,205.16 243.75,225.938 246.604,241.417 C249.974,259.688 294,280.257 306,289.348 C318,298.438 323.623,332.767 338.562,339.353 L346.694,336.438 C346.694,336.438 350.832,330.716 347.737,320.993 C334.75,280.188 324,260.688 288.121,236.259 C288.121,236.259 290.482,216.478 289.491,206.458 L257.708,205.16" id="Fill-126" fill="#3769A4"></path>
            <path d="M306,289.348 C300.506,285.186 288.299,278.617 276.354,270.966 C267.152,265.071 258.105,258.532 252.403,251.955 C249.34,248.422 247.243,244.879 246.604,241.417 C246.34,239.981 246.22,238.499 246.22,236.993 C246.22,222.262 257.708,205.16 257.708,205.16 L289.638,208.429 C289.705,209.672 289.734,211.014 289.734,212.413 C289.734,212.753 289.732,213.096 289.729,213.442 C289.628,223.63 288.121,236.259 288.121,236.259 C324,260.688 334.75,280.188 347.737,320.993 C348.58,323.642 348.886002,325.994 348.886002,328.015 C348.886002,328.039 348.886002,328.063 348.886002,328.087 C348.865,333.437 346.694,336.438 346.694,336.438 L346.542,336.493 L339.444,339.037 L339.43,339.042 L338.562,339.353 C323.623,332.767 318,298.438 306,289.348 Z M288.12,236.259 C288.12,236.259 289.84,221.818 289.72,211.368 C289.44,221.478 285.01,230.849 285.01,230.849 L271.5,225.438 C280.75,231.438 288.12,236.259 288.12,236.259 Z" id="Fill-127" fill="#97B498"></path>
            <path d="M340.38,338.698 C335.84,332.919 332.13,322.498 328.24,311.559 C324.11,299.969 319.84,287.988 314.81,283.228 C311.31,279.919 303.55,274.708 294.56,268.669 C276.21,256.339 255.4,242.368 254.01,233.849 C252.54,224.788 257.17,211.889 259.94,205.248 L262.08,205.339 C259.45,211.568 254.55,224.748 255.99,233.528 C257.24,241.188 279.45,256.118 295.67,267.009 C304.74,273.099 312.56,278.349 316.19,281.778 C321.56,286.868 325.72,298.528 330.12,310.889 C333.92,321.559 337.84,332.568 342.38,337.978 L340.38,338.698 Z" id="Fill-128" fill="#C8E6C9"></path>
            <path d="M288.12,236.259 C288.12,236.259 280.75,231.438 271.5,225.438 L285.01,230.849 C285.01,230.849 289.44,221.478 289.72,211.368 C289.84,221.818 288.12,236.259 288.12,236.259" id="Fill-129" fill="#C8E6C9"></path>
            <path d="M257.708,205.16 L289.726,208.438 C289.726,208.438 297.355,179.038 297.553,154.363 C297.553,154.363 285.295,158.352 274.272,157.02 C263.25,155.688 253.5,149.936 253.5,149.936 C253.5,149.936 258.666,182.133 257.708,205.16" id="Fill-130" fill="#1E292D"></path>
            <path d="M277.459,163.44 C269.839,161.46 267.934,157.853 267.934,157.853 C273.441,153.843 270.382,145.286 270.382,145.286 L279.485,148.217 C279.043,149.726 278.774,151.006 278.62,152.097 C277.827,157.747 280.379,158.129 280.379,158.129 C281.624,161.404 277.459,163.44 277.459,163.44" id="Fill-131" fill="#E88274"></path>
            <path d="M270.404,145.348 C270.389,145.308 270.382,145.286 270.382,145.286 C270.382,145.286 270.39,145.307 270.404,145.348" id="Fill-132" fill="#131B1E"></path>
            <path d="M278.62,152.097 C272.698,151.34 270.63,145.985 270.404,145.348 C270.39,145.307 270.382,145.286 270.382,145.286 L279.485,148.217 C279.043,149.726 278.774,151.006 278.62,152.097" id="Fill-133" fill="#B9695E"></path>
            <path d="M277.658,121.486 C285.82,122.077 288.131,126.637 288.121032,135.092 C288.108,145.657 285.237,152.957 275.193,149.974 C261.553,145.922 264.103,120.505 277.658,121.486" id="Fill-134" fill="#E88274"></path>
            <path d="M282.877,134.253 C282.877,134.253 283.854,136.467 285.008,137.81 C285.008,137.81 284.229,138.87 282.789,138.578 L282.877,134.253" id="Fill-135" fill="#E15B57"></path>
            <path d="M277.93,133.225 C277.897,133.896 277.507,134.423 277.06,134.401 C276.612,134.379 276.275,133.817 276.308,133.145 C276.341,132.474 276.73,131.947 277.178,131.969 C277.626,131.991 277.962,132.553 277.93,133.225" id="Fill-136" fill="#1E292D"></path>
            <path d="M276.99,131.992 L278.479,131.491 C278.479,131.491 277.691,132.684 276.99,131.992" id="Fill-137" fill="#1E292D"></path>
            <path d="M286.286,133.493 C286.253,134.164 285.864,134.691 285.416,134.669 C284.968,134.647 284.632,134.085 284.665,133.413 C284.697,132.742 285.087,132.215 285.535,132.237 C285.982,132.259 286.319,132.821 286.286,133.493" id="Fill-138" fill="#1E292D"></path>
            <path d="M285.346,132.261 L286.835,131.759 C286.835,131.759 286.048,132.953 285.346,132.261" id="Fill-139" fill="#1E292D"></path>
            <path d="M278.325,127.242 C278.309,127.238 277.939,127.163 277.401,127.163 C276.571,127.165 275.304,127.339 274.373,128.322 C274.241,128.461 274.248,128.682 274.388,128.813 C274.527,128.945 274.748,128.938 274.879,128.798 C275.6,128.027 276.66,127.858 277.401,127.859 C277.637,127.859 277.838,127.876 277.977,127.892 L278.136,127.915 L278.186,127.923 C278.374,127.962 278.558,127.84 278.596,127.652 C278.635,127.464 278.513,127.28 278.325,127.242" id="Fill-140" fill="#132529"></path>
            <path d="M284.31,128.001 L284.311,128 C284.336,127.994 284.523,127.949 284.819,127.949 C285.348,127.95 286.22,128.086 287.205,128.848 C287.357,128.965 287.575,128.938 287.693,128.786 C287.811,128.634 287.783,128.415 287.631,128.298 C286.517,127.433 285.471,127.251 284.819,127.252984 C284.4,127.252984 284.141,127.325 284.117,127.332 C283.932,127.386 283.826,127.579 283.879,127.763 C283.933,127.948 284.126,128.054 284.31,128.001" id="Fill-141" fill="#132529"></path>
            <path d="M281.367,141.704 C280.824,142.654 280.209,144.469 280.209,144.469 C280.035,144.443 279.86,144.417 279.688,144.382 C277.329,143.97 276.371,143 276.024,142.049 C275.836,141.529 275.838,141.008 275.894,140.594 C275.953,140.113 276.105,139.785 276.105,139.785 C277.225,140.75 279.394,141.304 280.565,141.55 C281.054,141.659 281.367,141.704 281.367,141.704" id="Fill-142" fill="#1E292D"></path>
            <path d="M280.565,141.55 L280.203,142.357 C277.982,141.964 276.471,141.389 275.894,140.594 C275.953,140.113 276.105,139.785 276.105,139.785 C277.225,140.75 279.394,141.304 280.565,141.55" id="Fill-143" fill="#FFFFFE"></path>
            <path d="M279.688,144.382 C277.329,143.97 276.371,143 276.024,142.049 C276.822,142.221 277.766,142.516 278.552,143.026 C279.155,143.413 279.49,143.907 279.688,144.382" id="Fill-144" fill="#E15B57"></path>
            <path d="M267.742,134.598 C267.742,134.598 272.043,128.168 271.84,122.949 C271.84,122.949 288.493,117.511 288.104,133.986 C288.104,133.986 290.739,119.522 276.731,118.183 C262.745,116.845 261.297,137.374 268.102,144.015 C268.102,144.015 265.078,138.621 267.742,134.598" id="Fill-145" fill="#1E292D"></path>
            <path d="M268.951,136.417 C268.991,135.099 267.796,132.777 265.333,132.867 C262.783,132.959 261.202,138.065 267.403,139.768 C268.293,140.013 268.866,139.167 268.951,136.417" id="Fill-146" fill="#E88274"></path>
            <path d="M253.5,149.936 C253.5,149.936 259.244,159.586 256.134,170.062 C256.134,170.062 234,145.429 232,139.809 C230,134.188 244.408,102.188 244.408,102.188 C244.408,102.188 242,95.438 242.5,93.938 C243,92.438 249.25,88.938 250.75,89.938 C252.25,90.938 251.75,101.938 251,103.438 C250.25,104.938 250.25,104.938 250.25,104.938 C250.25,104.938 242.545,133.916 243.522,136.052 C244.5,138.188 253.5,149.936 253.5,149.936" id="Fill-147" fill="#E88274"></path>
            <path d="M282.125,121.458 C282.125,121.458 273.365,134.577 261.74,132.476 C261.74,132.476 261.172,122.541 268.952,120.362 C276.731,118.183 282.125,121.458 282.125,121.458" id="Fill-148" fill="#1E292D"></path>
            <path d="M280.365,121.591 L280.388,121.627 C280.5,121.812 280.98,122.682 280.979,123.848 C280.977,124.756 280.697,125.846 279.714,126.984 C278.73,128.12 277.031,129.302 274.19,130.338 C274.066,130.383 274.002,130.521 274.047,130.646 C274.092,130.77 274.23,130.834 274.355,130.789 C277.247,129.734 279.021,128.517 280.077,127.298 C281.134,126.08 281.46,124.857 281.459002,123.848 C281.457,122.365 280.778,121.347 280.765,121.325 C280.691,121.215 280.542,121.185 280.432,121.259 C280.322,121.332 280.292,121.481 280.365,121.591" id="Fill-149" fill="#132529"></path>
            <path d="M284.206,121.221 C284.227,121.23 285.657,122.579 287.322,122.592004 C287.918,122.593 288.548,122.404 289.106,121.91 C289.664,121.417 290.151,120.635 290.522,119.459 C290.562,119.333 290.492,119.198 290.366,119.158 C290.239,119.118 290.104,119.188 290.065,119.315 C289.711,120.435 289.26,121.135 288.788,121.55 C288.315,121.965 287.822,122.11 287.322,122.112 C286.626,122.113 285.92,121.807 285.394,121.492 C285.132,121.335 284.913,121.177 284.762,121.059 L284.589,120.918 L284.531,120.868 C284.433,120.778 284.282,120.784 284.192,120.882 C284.102,120.98 284.109,121.131 284.206,121.221" id="Fill-150" fill="#132529"></path>
            <path d="M292.094,198.103 L293,196.563 C293,196.563 291.885,196.227 289.945,195.781 C290.758,190.191 293.273,169.037 287.137,155.313 L286,156.188 C286,156.188 288.844,160.534 289.125,169.063 L267.933,168.938 C267.933,168.938 265.5,157.063 262.49,153.417 L261.731,153.772 C261.731,153.772 268.979,171.865 266.195,193.683 C262.942,193.877 259.588,194.304 256.25,195.063 L257.057,196.563 C257.057,196.563 265.151,195.517 275.021,195.847 L286.155,196.862 C288.17,197.185 290.165,197.592 292.094,198.103" id="Fill-151" fill="#3769A4"></path>
            <path d="M292.094,198.103 L292.094,198.103 C290.165,197.592 288.17,197.185 286.155,196.862 L275.021,195.847 C273.676,195.802 272.366,195.782 271.104,195.782 C264.766,195.782 259.659,196.272 257.807,196.476 C257.32,196.53 257.057,196.563 257.057,196.563 L256.25,195.063 C259.588,194.304 262.942,193.877 266.195,193.683 C266.643,190.167 266.831,186.748 266.831,183.486 C266.831,166.504 261.731,153.772 261.731,153.772 L262.49,153.417 C265.5,157.063 267.933,168.938 267.933,168.938 L289.125,169.063 C288.844,160.534 286,156.188 286,156.188 L287.137,155.313 C290.271,162.323 291.148,171.27 291.148,179.092 C291.148,186.586 290.343,193.046 289.945,195.781 C291.885,196.227 293,196.563 293,196.563 L292.094,198.103" id="Fill-152" fill="#C8E6C9"></path>
            <path d="M276.17,181.161 C276.517,181.161 276.793,181.058 277,180.851 C277.207,180.644 277.31,180.288 277.31,179.781 L277.31,177.261 C277.31,176.755 277.207,176.401 277,176.201 C276.793,176.001 276.517,175.901 276.17,175.901 C275.823,175.901 275.546,176.001 275.34,176.201 C275.133,176.401 275.03,176.755 275.03,177.261 L275.03,179.781 C275.03,180.288 275.133,180.644 275.34,180.851 C275.546,181.058 275.823,181.161 276.17,181.161 Z M279.51,184.561 C279.51,185.748 279.236,186.651 278.69,187.27 C278.143,187.892 277.296,188.201 276.15,188.201 C275.07,188.201 274.253,187.897 273.7,187.291 C273.146,186.684 272.87,185.814 272.87,184.681 L272.87,184.321 L274.95,184.321 L274.95,184.821 C274.95,185.328 275.053,185.684 275.26,185.892 C275.467,186.098 275.743,186.201 276.09,186.201 C276.477,186.201 276.776,186.081 276.99,185.841 C277.203,185.601 277.31,185.147 277.31,184.481 L277.31,181.921 C276.923,182.748 276.243,183.161 275.27,183.161 C274.457,183.161 273.847,182.888 273.44,182.341 C273.033,181.794 272.83,181.001 272.83,179.961 L272.83,177.401 C272.83,176.268 273.117,175.398 273.69,174.791 C274.263,174.184 275.09,173.881 276.17,173.881 C277.25,173.881 278.077,174.184 278.65,174.791 C279.223,175.398 279.51,176.268 279.51,177.401 L279.51,184.561 L279.51,184.561 Z" id="Fill-153" fill="#97B498"></path>
            <path d="M284.09,181.161 C284.437,181.161 284.713,181.058 284.92,180.851 C285.126,180.644 285.23,180.288 285.23,179.781 L285.23,177.261 C285.23,176.755 285.126,176.401 284.92,176.201 C284.713,176.001 284.437,175.901 284.09,175.901 C283.743,175.901 283.466,176.001 283.26,176.201 C283.053,176.401 282.95,176.755 282.95,177.261 L282.95,179.781 C282.95,180.288 283.053,180.644 283.26,180.851 C283.466,181.058 283.743,181.161 284.09,181.161 Z M287.43,184.561 C287.43,185.748 287.156,186.651 286.61,187.27 C286.063,187.892 285.216,188.201 284.07,188.201 C282.99,188.201 282.173,187.897 281.62,187.291 C281.066,186.684 280.79,185.814 280.79,184.681 L280.79,184.321 L282.87,184.321 L282.87,184.821 C282.87,185.328 282.973,185.684 283.18,185.892 C283.387,186.098 283.663,186.201 284.01,186.201 C284.396,186.201 284.696,186.081 284.91,185.841 C285.123,185.601 285.23,185.147 285.23,184.481 L285.23,181.921 C284.843,182.748 284.163,183.161 283.19,183.161 C282.376,183.161 281.767,182.888 281.36,182.341 C280.953,181.794 280.75,181.001 280.75,179.961 L280.75,177.401 C280.75,176.268 281.037,175.398 281.61,174.791 C282.183,174.184 283.01,173.881 284.09,173.881 C285.17,173.881 285.997,174.184 286.57,174.791 C287.143,175.398 287.43,176.268 287.43,177.401 L287.43,184.561 L287.43,184.561 Z" id="Fill-154" fill="#97B498"></path>
            <path d="M437,179.429 C435,178.768 398.015,163.318 350.105,177.839 C337.645,181.608 324.447,186.379 311.687,190.998 C308.234,192.248 304.769,193.502 301.309,194.739 C299.37,195.433 295.938,196.782 295.655,198.704 L298.792,206.245 C305.226,204.007 308.48,202.791 315.09,200.398 C327.73,195.828 340.81,191.099 353.01,187.408 C386.44,177.278 414.66,182.978 426.77,186.509 L429.5,184.759 L428.17,182.438 L431.84,182.438 L428.17,179.438 L437,179.438 L437,179.429" id="Fill-155" fill="#90CAF9"></path>
            <path d="M296.833,208.438 C296.833,208.438 313.75,209.22 319.167,212.271 L319.333,204.068 C319.333,204.068 319.253,203.565 317.718,203.534 C312.497,203.428 301.052,202.406 298.352,201.001 C292.209,197.804 301.146,194.797 301.146,194.797 C301.146,194.797 295.5,196.563 295.655,198.704 C295.655,198.704 297.334,204.855 296.833,208.438" id="Fill-156" fill="#3769A4"></path>
            <path d="M319.167,212.271 C313.75,209.22 296.833,208.438 296.833,208.438 C296.898,207.973 296.927,207.464 296.926,206.931 C296.926,203.361 295.655,198.704 295.655,198.704 C295.653,198.675 295.652,198.646 295.652,198.616 C295.653,196.515 301.146,194.797 301.146,194.797 C301.146,194.797 296.197,196.462 296.196,198.631 C296.196,199.377 296.78,200.183 298.352,201.001 C301.052,202.406 312.497,203.428 317.718,203.534 C319.253,203.565 319.333,204.068 319.333,204.068 L319.167,212.271" id="Fill-157" fill="#5D99C6"></path>
            <path d="M320.838,212.57 C321.022,213.392 320.546,214.226 319.737,214.46 C314.907,215.858 309.662,216.478 304.07,216.478 C281.35,216.478 252.86,206.179 223.08,195.398 C210.44,190.828 197.36,186.099 185.16,182.408 C151.73,172.278 123.51,177.978 111.4,181.509 L108.67,179.759 L110,177.438 L106.33,177.438 L110,174.438 L101,174.438 L101,174.429 C103,173.768 140.07,158.318 187.98,172.838 C200.44,176.608 213.68,181.379 226.44,185.998 C261.04,198.518 299.695,209.259 318.04,204.509 C319.213,204.205 319.096,203.891 318.8,203.721 C318.602,203.607 318.315,203.581 318.315,203.581 C319.201,203.631 319.365,203.978 319.375,204.298 C319.431,206.074 320.335,210.323 320.838,212.57" id="Fill-158" fill="#90CAF9"></path>
        </g>
    </g>
</svg>